<svg width="41" height="40" viewBox="0 0 41 40" fill="none" xmlns="http://www.w3.org/2000/svg">
<path d="M17.3749 8.125C17.3749 7.2962 17.7042 6.50134 18.2902 5.91529C18.8763 5.32924 19.6711 5 20.4999 5C21.3287 5 22.1236 5.32924 22.7096 5.91529C23.2957 6.50134 23.6249 7.2962 23.6249 8.125C23.6249 8.9538 23.2957 9.74866 22.7096 10.3347C22.1236 10.9208 21.3287 11.25 20.4999 11.25C19.6711 11.25 18.8763 10.9208 18.2902 10.3347C17.7042 9.74866 17.3749 8.9538 17.3749 8.125ZM20.4999 2.5C19.6515 2.50001 18.8142 2.69192 18.0505 3.06135C17.2868 3.43079 16.6165 3.96818 16.0899 4.6333C15.5633 5.29843 15.194 6.07405 15.0095 6.90212C14.8251 7.73019 14.8304 8.58925 15.0249 9.415L10.9949 7.79C10.0171 7.3962 8.92339 7.40429 7.95152 7.81251C6.97965 8.22073 6.20821 8.99608 5.80491 9.97C5.60528 10.4523 5.50323 10.9694 5.50465 11.4914C5.50607 12.0134 5.61094 12.5299 5.81319 13.0111C6.01543 13.4923 6.31105 13.9286 6.68296 14.2949C7.05486 14.6612 7.49567 14.9501 7.97991 15.145L12.9999 17.1725V23.1325L8.46741 31.6575C8.222 32.1188 8.06985 32.6239 8.01964 33.1439C7.96944 33.664 8.02215 34.1889 8.17479 34.6886C8.32743 35.1883 8.57699 35.653 8.90923 36.0562C9.24148 36.4595 9.64989 36.7933 10.1112 37.0388C11.0427 37.5344 12.133 37.6396 13.1422 37.3314C14.1514 37.0231 14.9968 36.3266 15.4924 35.395L20.4999 25.975L25.5099 35.395C26.0052 36.3266 26.8503 37.0232 27.8592 37.3317C28.8682 37.6402 29.9583 37.5353 30.8899 37.04C31.8215 36.5447 32.5181 35.6996 32.8266 34.6907C33.1351 33.6817 33.0302 32.5916 32.5349 31.66L27.9999 23.13V17.1725L33.0199 15.145C33.5041 14.9501 33.945 14.6612 34.3169 14.2949C34.6888 13.9286 34.9844 13.4923 35.1866 13.0111C35.3889 12.5299 35.4937 12.0134 35.4952 11.4914C35.4966 10.9694 35.3945 10.4523 35.1949 9.97C34.7921 8.99563 34.0208 8.21971 33.0489 7.811C32.077 7.40229 30.983 7.39384 30.0049 7.7875L25.9774 9.415C26.172 8.58905 26.1772 7.72977 25.9927 6.90151C25.8081 6.07326 25.4385 5.29749 24.9116 4.63232C24.3847 3.96715 23.7142 3.42981 22.9501 3.06054C22.1861 2.69126 21.3485 2.49964 20.4999 2.5ZM8.11741 10.9225C8.26867 10.5588 8.55693 10.2692 8.91991 10.1163C9.28289 9.9633 9.69147 9.95926 10.0574 10.105L18.6274 13.5675C19.8286 14.0527 21.1712 14.0527 22.3724 13.5675L30.9424 10.105C31.3083 9.95926 31.7169 9.9633 32.0799 10.1163C32.4429 10.2692 32.7311 10.5588 32.8824 10.9225C32.9565 11.0999 32.9945 11.2903 32.9943 11.4826C32.9941 11.6749 32.9556 11.8652 32.8812 12.0425C32.8068 12.2198 32.6978 12.3805 32.5607 12.5152C32.4235 12.65 32.261 12.7561 32.0824 12.8275L27.0624 14.8525C26.6 15.0396 26.2041 15.3607 25.9256 15.7746C25.6472 16.1885 25.4989 16.6762 25.4999 17.175V23.1325C25.4997 23.5422 25.6001 23.9457 25.7924 24.3075L30.3274 32.835C30.4914 33.179 30.5163 33.573 30.3971 33.935C30.2778 34.297 30.0235 34.5989 29.6871 34.7781C29.3507 34.9572 28.9582 34.9997 28.5913 34.8967C28.2244 34.7937 27.9114 34.5531 27.7174 34.225L22.7074 24.8C22.4945 24.3994 22.1765 24.0643 21.7876 23.8306C21.3987 23.5969 20.9536 23.4734 20.4999 23.4734C20.0462 23.4734 19.6011 23.5969 19.2122 23.8306C18.8233 24.0643 18.5054 24.3994 18.2924 24.8L13.2849 34.2175C13.1938 34.3889 13.0698 34.5406 12.9201 34.6641C12.7703 34.7876 12.5977 34.8803 12.4121 34.9371C12.2265 34.9938 12.0316 35.0135 11.8384 34.9949C11.6452 34.9763 11.4575 34.9199 11.2862 34.8288C11.1148 34.7376 10.963 34.6137 10.8396 34.4639C10.7161 34.3142 10.6233 34.1416 10.5666 33.956C10.5098 33.7704 10.4902 33.5754 10.5088 33.3822C10.5273 33.189 10.5838 33.0014 10.6749 32.83L15.2074 24.305C15.3993 23.944 15.4998 23.5414 15.4999 23.1325V17.1725C15.4999 16.6745 15.3512 16.1879 15.0728 15.775C14.7944 15.3621 14.399 15.0417 13.9374 14.855L8.91741 12.825C8.73887 12.7536 8.57629 12.6475 8.43916 12.5127C8.30202 12.378 8.19306 12.2173 8.11862 12.04C8.04417 11.8627 8.00572 11.6724 8.00552 11.4801C8.00531 11.2878 8.04334 11.0999 8.11741 10.9225Z" fill="#A729F5"/>
</svg>
